<svg version="1.1" id="Layer_1" xmlns="http://www.w3.org/2000/svg" xmlns:xlink="http://www.w3.org/1999/xlink" x="0px" y="0px"
	 width="100%" viewBox="0 0 251 125" enable-background="new 0 0 251 125" xml:space="preserve">
<path fill="#000000" opacity="1.000000" stroke="none" 
	d="
M181.000000,126.000000 
	C120.666672,126.000000 60.833340,126.000000 1.000008,126.000000 
	C1.000005,84.333336 1.000005,42.666679 1.000003,1.000014 
	C84.666656,1.000009 168.333313,1.000009 251.999969,1.000005 
	C251.999985,42.666653 251.999985,84.333305 252.000000,125.999985 
	C228.500000,126.000000 205.000000,126.000000 181.000000,126.000000 
M89.953606,22.011206 
	C103.922997,21.951172 117.892395,21.891138 132.660660,21.959148 
	C142.301682,23.931431 150.350281,28.363714 157.207947,35.694939 
	C171.423782,50.892429 170.252136,77.018921 153.334045,90.364807 
	C141.212128,69.486549 129.145569,48.703636 116.661163,27.201069 
	C104.118835,48.887993 92.545586,69.734093 80.079887,90.032120 
	C75.268700,97.866226 76.041054,105.552795 76.251617,113.170273 
	C95.817886,113.170273 114.759514,113.170273 135.189056,113.170273 
	C132.498505,108.290878 130.498230,104.663307 127.834946,100.398720 
	C115.426331,100.282257 103.017715,100.165794 90.414711,99.397888 
	C99.138527,84.440987 107.862335,69.484085 116.814156,54.136284 
	C120.038177,59.857315 123.053673,65.254135 126.112289,70.626411 
	C132.822540,82.412598 139.542526,94.193275 146.286575,105.960136 
	C147.907928,108.789062 150.225784,109.513687 152.928604,107.539650 
	C157.283646,104.358887 162.031906,101.512711 165.728867,97.672928 
	C176.880356,86.090691 181.835342,72.328300 180.185013,55.969997 
	C178.509216,39.359062 170.083527,27.217659 157.152832,17.678505 
	C149.208084,11.817547 139.831161,9.752067 129.061203,7.926941 
	C112.533890,7.951538 96.006439,7.952687 79.479477,8.041462 
	C78.023621,8.049283 76.570831,8.630209 75.012405,9.884105 
	C75.012405,30.152447 75.012405,50.420788 75.012405,70.689133 
	C75.282883,70.732697 75.553360,70.776268 75.823845,70.819839 
	C76.167908,70.021149 76.511978,69.222466 77.451630,67.984528 
	C81.247147,61.735439 85.042664,55.486351 89.001190,48.271160 
	C89.007439,39.534340 89.013687,30.797522 89.953606,22.011206 
z"/>
<path fill="#1A499F" opacity="1.000000" stroke="none" 
	d="
M128.497955,101.035744 
	C130.498230,104.663307 132.498505,108.290878 135.189056,113.170273 
	C114.759514,113.170273 95.817886,113.170273 76.251617,113.170273 
	C76.041054,105.552795 75.268700,97.866226 80.079887,90.032120 
	C92.545586,69.734093 104.118835,48.887993 116.661163,27.201069 
	C129.145569,48.703636 141.212128,69.486549 153.334045,90.364807 
	C170.252136,77.018921 171.423782,50.892429 157.207947,35.694939 
	C150.350281,28.363714 142.301682,23.931431 131.936066,21.646563 
	C117.624207,21.234743 104.036995,21.120077 90.449570,21.079638 
	C89.733612,21.077507 89.015778,21.704487 88.191345,22.493893 
	C88.060402,25.408661 87.945229,27.871344 88.031395,30.326963 
	C88.252663,36.632069 88.563278,42.934036 88.838173,49.237259 
	C85.042664,55.486351 81.247147,61.735439 76.864151,67.856430 
	C76.230339,48.182381 76.184006,28.636438 76.596054,9.049028 
	C86.512878,9.001874 95.971893,9.058611 105.429588,8.971678 
	C113.702103,8.895639 121.973129,8.658041 130.244812,8.491814 
	C139.831161,9.752067 149.208084,11.817547 157.152832,17.678505 
	C170.083527,27.217659 178.509216,39.359062 180.185013,55.969997 
	C181.835342,72.328300 176.880356,86.090691 165.728867,97.672928 
	C162.031906,101.512711 157.283646,104.358887 152.928604,107.539650 
	C150.225784,109.513687 147.907928,108.789062 146.286575,105.960136 
	C139.542526,94.193275 132.822540,82.412598 126.112289,70.626411 
	C123.053673,65.254135 120.038177,59.857315 116.814156,54.136284 
	C107.862335,69.484085 99.138527,84.440987 90.781082,99.822922 
	C93.071083,100.492493 94.993118,100.933098 96.918633,100.948929 
	C107.444595,101.035477 117.971428,101.017685 128.497955,101.035744 
z"/>
<path fill="#A7B9DB" opacity="1.000000" stroke="none" 
	d="
M76.137672,9.090494 
	C76.184006,28.636438 76.230339,48.182381 76.566360,68.076050 
	C76.511978,69.222466 76.167908,70.021149 75.823845,70.819839 
	C75.553360,70.776268 75.282883,70.732697 75.012405,70.689133 
	C75.012405,50.420788 75.012405,30.152447 75.327133,9.448687 
	C75.807129,9.039011 75.972397,9.064753 76.137672,9.090494 
z"/>
<path fill="#D8E0EF" opacity="1.000000" stroke="none" 
	d="
M76.596054,9.049028 
	C75.972397,9.064753 75.807129,9.039011 75.379242,8.979109 
	C76.570831,8.630209 78.023621,8.049283 79.479477,8.041462 
	C96.006439,7.952687 112.533890,7.951538 129.653015,8.209377 
	C121.973129,8.658041 113.702103,8.895639 105.429588,8.971678 
	C95.971893,9.058611 86.512878,9.001874 76.596054,9.049028 
z"/>
<path fill="#98ACD4" opacity="1.000000" stroke="none" 
	d="
M88.298813,22.038588 
	C89.015778,21.704487 89.733612,21.077507 90.449570,21.079638 
	C104.036995,21.120077 117.624207,21.234743 131.536621,21.582541 
	C117.892395,21.891138 103.922997,21.951172 89.306213,22.046745 
	C88.658821,22.082285 88.298813,22.038586 88.298813,22.038588 
z"/>
<path fill="#5F80BC" opacity="1.000000" stroke="none" 
	d="
M128.166443,100.717232 
	C117.971428,101.017685 107.444595,101.035477 96.918633,100.948929 
	C94.993118,100.933098 93.071083,100.492493 90.878273,100.148643 
	C103.017715,100.165794 115.426331,100.282257 128.166443,100.717232 
z"/>
<path fill="#A9BBDB" opacity="1.000000" stroke="none" 
	d="
M88.191345,22.493889 
	C88.298813,22.038586 88.658821,22.082285 88.839386,22.071495 
	C89.013687,30.797522 89.007439,39.534340 88.919678,48.754211 
	C88.563278,42.934036 88.252663,36.632069 88.031395,30.326963 
	C87.945229,27.871344 88.060402,25.408661 88.191345,22.493889 
z"/>
</svg>