<?xml version="1.0" encoding="UTF-8" ?>
<!DOCTYPE svg PUBLIC "-//W3C//DTD SVG 1.1//EN" "http://www.w3.org/Graphics/SVG/1.1/DTD/svg11.dtd">
<svg width="867pt" height="256pt" viewBox="0 0 867 256" version="1.1" xmlns="http://www.w3.org/2000/svg">
<g id="#ffffffff">
</g>
<g id="#0d519bff">
<path fill="#0d519b" opacity="1.00" d=" M 127.48 0.00 L 136.33 0.00 C 153.01 0.85 169.60 4.42 184.89 11.21 C 213.61 23.72 237.64 46.86 250.75 75.37 C 263.03 101.67 265.62 132.28 258.11 160.31 C 250.78 188.07 233.50 212.93 210.44 229.97 C 210.42 222.80 210.42 215.64 210.44 208.48 C 227.72 192.27 239.81 170.52 243.87 147.13 C 248.49 121.51 243.54 94.32 230.13 72.00 C 216.00 48.16 192.77 30.01 166.34 21.76 C 138.90 13.07 108.24 14.95 82.15 27.14 C 55.85 39.21 34.48 61.67 24.07 88.69 C 54.04 88.73 84.01 88.67 113.98 88.72 C 124.73 88.40 134.33 98.21 133.66 108.96 C 133.35 115.45 134.55 122.20 132.50 128.48 C 129.82 136.10 122.05 141.48 113.97 141.35 C 93.38 141.41 72.79 141.36 52.21 141.37 C 52.18 159.65 52.24 177.93 52.18 196.20 C 46.38 190.04 41.49 183.08 37.23 175.78 C 36.28 174.38 36.23 172.65 36.24 171.02 C 36.31 155.41 36.25 139.80 36.27 124.19 C 59.52 124.20 82.77 124.16 106.02 124.21 C 108.29 124.19 110.87 124.21 112.61 122.50 C 115.63 119.90 114.84 115.50 114.80 111.97 C 114.80 108.45 111.54 105.48 108.05 105.66 C 72.69 105.52 37.33 105.69 1.97 105.74 C 7.49 74.72 25.27 46.26 50.32 27.24 C 72.32 10.29 99.77 0.79 127.48 0.00 Z" />
<path fill="#0d519b" opacity="1.00" d=" M 309.72 41.98 C 325.50 42.02 341.28 41.86 357.06 42.06 C 364.83 42.51 373.51 43.03 379.54 48.58 C 385.29 54.06 386.33 62.46 386.77 69.98 C 387.00 78.32 387.16 87.04 384.00 94.91 C 381.69 100.71 376.12 104.64 370.12 105.85 C 359.59 108.03 348.77 107.18 338.09 107.36 C 338.07 102.07 338.07 96.78 338.09 91.50 C 345.94 91.26 353.95 92.21 361.68 90.44 C 365.11 89.67 367.46 86.51 367.82 83.10 C 368.57 76.92 368.75 70.50 367.28 64.41 C 366.11 59.94 361.26 58.16 357.08 58.02 C 347.49 57.59 337.87 57.94 328.27 57.83 C 328.27 84.78 328.26 111.73 328.28 138.68 C 322.09 138.73 315.91 138.68 309.73 138.71 C 309.70 106.46 309.72 74.22 309.72 41.98 Z" />
<path fill="#0d519b" opacity="1.00" d=" M 401.61 41.98 C 407.02 41.97 412.43 41.97 417.84 41.98 C 417.85 74.22 417.85 106.46 417.84 138.70 C 412.43 138.69 407.01 138.72 401.60 138.69 C 401.62 106.45 401.60 74.21 401.61 41.98 Z" />
<path fill="#0d519b" opacity="1.00" d=" M 571.48 41.99 C 576.88 41.96 582.29 41.97 587.71 41.98 C 587.71 46.57 587.71 51.17 587.71 55.76 C 582.30 55.76 576.88 55.77 571.47 55.76 C 571.48 51.17 571.47 46.58 571.48 41.99 Z" />
<path fill="#0d519b" opacity="1.00" d=" M 515.27 55.66 C 520.68 55.62 526.10 55.64 531.52 55.64 C 531.52 60.76 531.53 65.87 531.51 70.98 C 526.10 70.99 520.69 70.99 515.28 70.99 C 515.27 65.88 515.29 60.77 515.27 55.66 Z" />
<path fill="#0d519b" opacity="1.00" d=" M 442.88 74.73 C 449.48 69.76 458.26 70.48 466.07 70.22 C 473.86 70.51 482.48 70.12 489.19 74.78 C 495.11 79.20 496.07 87.21 496.28 94.05 C 496.40 108.93 496.30 123.82 496.33 138.70 C 490.92 138.71 485.51 138.70 480.10 138.70 C 480.32 135.69 480.54 132.69 480.82 129.69 C 478.59 135.83 472.15 138.99 465.94 139.24 C 458.56 139.60 450.81 139.93 443.81 137.20 C 438.13 134.92 434.92 128.93 434.40 123.07 C 433.75 116.43 433.79 108.85 438.34 103.48 C 442.97 98.25 450.45 97.47 457.01 97.22 C 463.07 97.22 469.66 96.66 475.07 99.93 C 477.28 101.16 478.63 103.37 480.09 105.35 C 479.92 99.36 480.59 93.26 479.40 87.35 C 478.42 83.23 473.89 81.72 470.13 81.51 C 465.65 81.30 460.84 80.82 456.64 82.70 C 453.58 84.14 453.05 87.75 452.76 90.74 C 447.37 90.69 441.99 90.74 436.61 90.70 C 436.63 84.87 437.97 78.45 442.88 74.73 M 452.54 108.79 C 446.05 110.26 446.01 118.47 447.47 123.60 C 448.52 127.25 452.65 128.27 456.00 128.28 C 460.70 128.34 465.68 128.89 470.13 127.06 C 474.82 124.76 475.15 118.59 474.10 114.11 C 473.32 110.81 470.06 108.86 466.87 108.57 C 462.11 108.17 457.25 107.98 452.54 108.79 Z" />
<path fill="#0d519b" opacity="1.00" d=" M 634.59 70.82 C 642.76 69.91 651.89 69.36 659.19 73.84 C 665.19 77.71 666.36 85.43 666.54 92.01 C 666.65 107.57 666.55 123.14 666.58 138.70 C 661.17 138.70 655.76 138.70 650.35 138.70 C 650.31 123.80 650.41 108.89 650.30 93.99 C 650.32 89.94 649.23 84.76 644.73 83.51 C 639.17 82.12 632.85 82.05 627.60 84.58 C 622.70 87.06 621.83 93.10 621.69 98.02 C 621.48 111.58 621.66 125.14 621.60 138.70 C 616.19 138.70 610.78 138.70 605.37 138.70 C 605.36 116.13 605.37 93.57 605.37 71.00 C 610.78 70.98 616.19 70.98 621.61 71.00 C 621.59 74.51 621.58 78.03 621.67 81.54 C 623.79 76.00 628.57 71.54 634.59 70.82 Z" />
<path fill="#0d519b" opacity="1.00" d=" M 792.25 71.26 C 799.27 69.73 806.90 69.65 813.67 72.30 C 818.05 73.98 820.94 78.03 822.01 82.49 C 823.27 79.80 824.60 76.98 827.02 75.10 C 832.27 70.77 839.45 70.04 846.02 70.27 C 851.73 70.51 858.09 71.40 862.26 75.74 C 865.91 79.52 866.54 85.03 867.00 90.02 L 867.00 138.70 C 861.59 138.70 856.18 138.70 850.77 138.70 C 850.71 123.80 850.83 108.90 850.72 94.01 C 850.62 89.85 849.59 84.43 844.89 83.25 C 839.66 82.14 833.74 82.20 828.99 84.88 C 824.27 87.85 823.83 93.98 823.72 99.01 C 823.64 112.24 823.72 125.47 823.69 138.70 C 818.27 138.70 812.86 138.71 807.45 138.70 C 807.41 123.80 807.52 108.91 807.41 94.01 C 807.32 89.93 806.34 84.57 801.76 83.30 C 796.54 82.12 790.62 82.19 785.82 84.79 C 781.31 87.50 780.59 93.21 780.44 97.99 C 780.30 111.56 780.43 125.13 780.38 138.70 C 774.97 138.70 769.56 138.70 764.15 138.70 C 764.14 116.13 764.15 93.57 764.15 71.00 C 769.39 70.98 774.63 70.98 779.87 71.00 C 779.87 74.44 779.88 77.88 779.87 81.32 C 782.21 76.26 786.77 72.43 792.25 71.26 Z" />
<path fill="#0d519b" opacity="1.00" d=" M 571.47 71.00 C 576.88 70.97 582.29 70.99 587.71 71.00 C 587.71 93.56 587.71 116.13 587.71 138.70 C 582.29 138.70 576.88 138.71 571.48 138.70 C 571.47 116.13 571.48 93.57 571.47 71.00 Z" />
<path fill="#0d519b" opacity="1.00" d=" M 685.02 70.99 C 690.43 70.99 695.84 70.98 701.25 70.99 C 701.28 86.01 701.19 101.03 701.29 116.05 C 701.45 119.15 701.45 122.82 703.98 125.05 C 706.48 127.09 709.93 127.03 713.00 127.09 C 717.28 126.98 722.13 126.51 725.30 123.27 C 728.56 119.71 729.02 114.58 729.09 109.97 C 729.10 96.98 729.08 83.98 729.09 70.99 C 734.50 70.99 739.91 70.98 745.33 70.99 C 745.34 93.56 745.33 116.13 745.33 138.70 C 740.09 138.70 734.85 138.71 729.61 138.70 C 729.61 135.06 729.63 131.42 729.54 127.78 C 727.18 132.77 723.04 137.03 717.55 138.36 C 710.10 140.04 701.97 140.06 694.78 137.29 C 688.36 134.75 684.92 127.74 685.06 121.10 C 684.96 104.40 685.04 87.69 685.02 70.99 Z" />
<path fill="#0d519b" opacity="1.00" d=" M 515.28 83.38 C 520.69 83.38 526.11 83.38 531.52 83.38 C 531.54 95.58 531.48 107.79 531.54 119.99 C 531.56 122.36 531.77 125.48 534.35 126.50 C 536.97 127.37 539.95 127.31 542.58 126.44 C 545.18 125.48 545.98 122.64 546.60 120.22 C 551.31 120.22 556.04 120.21 560.76 120.23 C 560.25 126.41 558.69 133.63 552.74 136.82 C 546.71 139.87 539.66 139.58 533.09 139.30 C 527.65 138.96 521.23 137.91 518.11 132.85 C 515.12 127.80 515.37 121.65 515.28 115.98 C 515.29 105.11 515.27 94.25 515.28 83.38 Z" />
</g>
<g id="#009edfff">
<path fill="#009edf" opacity="1.00" d=" M 506.78 70.99 C 509.61 70.98 512.44 70.98 515.28 70.99 C 520.69 70.99 526.10 70.99 531.51 70.98 C 540.14 70.99 548.78 70.98 557.42 70.99 C 557.42 75.12 557.42 79.24 557.42 83.37 C 548.78 83.38 540.15 83.37 531.52 83.38 C 526.11 83.38 520.69 83.38 515.28 83.38 C 512.45 83.38 509.61 83.38 506.78 83.37 C 506.77 79.24 506.77 75.12 506.78 70.99 Z" />
<path fill="#009edf" opacity="1.00" d=" M 133.51 88.99 C 165.89 89.09 198.27 88.99 230.66 89.04 C 230.65 95.07 230.66 101.09 230.65 107.12 C 218.00 107.14 205.35 107.11 192.70 107.13 C 192.69 151.77 192.69 196.42 192.70 241.06 C 175.03 250.28 155.28 255.24 135.40 256.00 L 126.58 256.00 C 94.63 254.88 63.17 242.08 39.98 220.00 C 15.86 197.48 1.12 165.32 0.00 132.32 L 0.00 124.18 C 5.60 124.17 11.21 124.17 16.81 124.17 C 16.10 145.69 21.80 167.39 33.22 185.67 C 47.80 209.32 71.42 227.11 98.07 234.88 C 122.44 242.09 149.15 241.04 172.89 231.95 C 172.88 190.34 172.89 148.74 172.88 107.13 C 162.39 107.12 151.89 107.14 141.40 107.11 C 140.94 100.35 138.13 93.94 133.51 88.99 Z" />
<path fill="#009edf" opacity="1.00" d=" M 308.85 159.16 C 323.77 159.16 338.70 159.15 353.62 159.16 C 353.62 161.12 353.61 163.08 353.62 165.04 C 347.27 165.06 340.92 165.04 334.57 165.05 C 334.56 182.70 334.56 200.35 334.57 218.00 C 332.34 218.01 330.12 218.01 327.91 218.01 C 327.90 200.36 327.91 182.70 327.90 165.05 C 321.55 165.04 315.20 165.06 308.85 165.04 C 308.84 163.08 308.84 161.12 308.85 159.16 Z" />
<path fill="#009edf" opacity="1.00" d=" M 484.89 159.16 C 486.95 159.16 489.01 159.16 491.08 159.16 C 491.09 178.78 491.09 198.39 491.08 218.01 C 489.01 218.01 486.94 218.01 484.87 218.01 C 484.89 216.23 484.92 214.46 484.98 212.69 C 482.99 215.85 479.67 218.01 475.90 218.23 C 470.28 218.78 463.65 218.84 459.38 214.55 C 455.51 210.44 455.56 204.38 455.34 199.10 C 455.43 193.83 455.10 188.27 457.28 183.34 C 459.29 178.79 464.37 176.53 469.13 176.43 C 474.74 176.12 481.97 176.26 484.99 181.94 C 484.77 174.35 484.94 166.75 484.89 159.16 M 466.24 182.29 C 463.66 183.40 462.65 186.32 462.27 188.89 C 461.58 194.22 461.57 199.65 462.19 204.99 C 462.58 207.89 463.57 211.27 466.53 212.51 C 470.50 213.81 474.90 213.73 478.96 212.85 C 482.52 212.08 484.20 208.36 484.49 205.05 C 485.04 199.55 485.14 193.93 484.25 188.46 C 483.72 185.25 481.26 182.46 478.03 181.85 C 474.16 181.11 470.01 181.07 466.24 182.29 Z" />
<path fill="#009edf" opacity="1.00" d=" M 561.82 159.16 C 563.87 159.16 565.93 159.15 568.00 159.16 C 568.01 178.77 568.01 198.39 568.00 218.01 C 565.93 218.01 563.87 218.01 561.82 218.01 C 561.81 198.39 561.82 178.78 561.82 159.16 Z" />
<path fill="#009edf" opacity="1.00" d=" M 586.43 159.16 C 588.49 159.16 590.56 159.16 592.63 159.16 C 592.62 161.43 592.62 163.70 592.63 165.98 C 590.56 165.98 588.49 165.98 586.43 165.97 C 586.43 163.70 586.43 161.43 586.43 159.16 Z" />
<path fill="#009edf" opacity="1.00" d=" M 664.46 159.16 C 666.52 159.16 668.58 159.16 670.65 159.16 C 670.66 170.56 670.63 181.96 670.66 193.36 C 673.46 193.79 674.88 191.23 676.54 189.51 C 680.34 185.26 684.17 181.03 688.00 176.81 C 690.52 176.81 693.04 176.81 695.57 176.82 C 689.71 183.14 683.82 189.42 677.95 195.73 C 684.88 203.17 691.85 210.57 698.78 218.00 C 696.10 218.01 693.43 218.01 690.76 218.06 C 684.75 211.61 679.22 204.71 673.10 198.39 C 672.49 198.32 671.27 198.17 670.66 198.10 C 670.63 204.73 670.65 211.37 670.65 218.01 C 668.58 218.01 666.51 218.00 664.46 218.00 C 664.46 198.39 664.46 178.78 664.46 159.16 Z" />
<path fill="#009edf" opacity="1.00" d=" M 406.59 179.65 C 410.06 176.14 415.42 176.47 419.97 176.34 C 424.70 176.47 429.92 176.13 434.04 178.89 C 437.28 181.13 438.31 185.26 438.35 188.99 C 438.44 198.66 438.36 208.34 438.38 218.01 C 436.31 218.01 434.25 218.01 432.18 218.01 C 432.20 216.95 432.24 214.82 432.26 213.76 C 428.66 219.08 421.63 218.57 416.00 218.43 C 411.60 218.31 406.30 217.36 404.17 212.97 C 402.19 208.41 402.28 202.84 404.27 198.29 C 406.82 193.36 413.12 193.17 417.96 193.07 C 422.86 193.21 428.98 192.77 432.25 197.21 C 431.61 192.48 433.87 185.97 429.31 182.68 C 424.82 180.70 419.58 181.23 414.83 181.82 C 411.55 182.25 410.19 185.46 410.32 188.43 C 408.18 188.42 406.05 188.42 403.93 188.41 C 404.14 185.37 404.25 181.93 406.59 179.65 M 413.36 198.53 C 410.74 198.89 409.22 201.47 409.26 203.96 C 409.03 207.17 409.27 211.83 413.05 212.88 C 417.78 213.78 422.81 213.76 427.52 212.68 C 433.94 210.97 433.69 199.34 426.90 198.46 C 422.42 197.92 417.82 197.84 413.36 198.53 Z" />
<path fill="#009edf" opacity="1.00" d=" M 514.01 178.88 C 518.47 176.16 523.96 176.38 529.00 176.38 C 533.55 176.55 539.08 176.95 541.84 181.15 C 545.05 186.41 544.33 192.90 544.48 198.80 C 534.59 198.80 524.71 198.79 514.82 198.80 C 515.26 203.31 513.83 209.61 518.43 212.37 C 523.72 213.98 529.58 213.76 534.98 212.79 C 538.21 211.95 538.11 208.17 538.25 205.52 C 540.36 205.53 542.46 205.53 544.57 205.54 C 544.51 209.24 544.16 213.55 540.82 215.84 C 536.22 218.94 530.31 218.36 525.03 218.45 C 519.83 218.29 513.35 217.57 510.66 212.40 C 507.95 206.72 508.50 200.16 508.48 194.05 C 508.78 188.71 509.14 182.20 514.01 178.88 M 519.33 182.29 C 514.71 184.01 515.20 189.77 514.81 193.76 C 522.57 193.77 530.32 193.77 538.08 193.76 C 537.56 189.79 538.51 183.84 533.94 181.98 C 529.17 181.05 524.04 180.99 519.33 182.29 Z" />
<path fill="#009edf" opacity="1.00" d=" M 361.00 176.81 C 363.01 176.81 365.02 176.81 367.03 176.82 C 366.92 178.56 366.80 180.31 366.65 182.05 C 368.35 179.46 370.84 177.33 374.00 176.85 C 378.34 176.01 383.58 175.87 387.06 179.05 C 390.20 182.14 390.01 186.86 390.04 190.93 C 388.08 190.93 386.13 190.94 384.18 190.94 C 383.91 188.02 384.73 184.00 381.77 182.21 C 378.49 180.90 374.62 181.11 371.40 182.48 C 368.21 183.94 367.18 187.68 367.20 190.92 C 367.14 199.95 367.21 208.98 367.18 218.01 C 365.12 218.01 363.06 218.01 361.00 218.01 C 360.99 204.28 360.99 190.55 361.00 176.81 Z" />
<path fill="#009edf" opacity="1.00" d=" M 586.43 218.00 C 586.47 204.27 586.36 190.53 586.49 176.80 C 588.51 176.80 590.53 176.80 592.56 176.79 C 592.71 190.53 592.58 204.27 592.63 218.01 C 590.56 218.01 588.49 218.01 586.43 218.00 Z" />
<path fill="#009edf" opacity="1.00" d=" M 611.22 176.82 C 613.28 176.81 615.35 176.81 617.43 176.81 C 617.39 178.50 617.37 180.19 617.31 181.88 C 619.44 177.53 624.55 176.34 629.00 176.35 C 633.38 176.38 638.27 176.31 641.92 179.10 C 645.15 181.67 645.79 186.10 645.79 189.98 C 645.81 199.32 645.79 208.67 645.79 218.01 C 643.73 218.01 641.66 218.01 639.61 218.01 C 639.56 208.36 639.66 198.71 639.57 189.07 C 639.54 186.34 638.69 183.03 635.78 182.10 C 631.40 180.97 626.60 181.05 622.29 182.41 C 618.41 183.79 617.54 188.33 617.47 191.96 C 617.32 200.64 617.46 209.33 617.40 218.01 C 615.33 218.01 613.27 218.01 611.22 218.01 C 611.21 204.28 611.21 190.55 611.22 176.82 Z" />
</g>
</svg>
